<svg width="512" height="512" viewBox="0 0 512 512" fill="none" xmlns="http://www.w3.org/2000/svg">
  <!-- Background circle -->
  <circle cx="256" cy="256" r="240" fill="#1a1a1a" stroke="#3b82f6" stroke-width="8"/>
  
  <!-- Brain/Neural network structure -->
  <g fill="#60a5fa">
    <!-- Central nodes -->
    <circle cx="256" cy="200" r="12"/>
    <circle cx="200" cy="280" r="10"/>
    <circle cx="312" cy="280" r="10"/>
    <circle cx="180" cy="200" r="8"/>
    <circle cx="332" cy="200" r="8"/>
    <circle cx="256" cy="320" r="10"/>
    
    <!-- Connection lines -->
    <path d="M256 188 L200 272" stroke="#60a5fa" stroke-width="3" stroke-linecap="round"/>
    <path d="M256 188 L312 272" stroke="#60a5fa" stroke-width="3" stroke-linecap="round"/>
    <path d="M188 192 L200 272" stroke="#60a5fa" stroke-width="2" stroke-linecap="round"/>
    <path d="M324 192 L312 272" stroke="#60a5fa" stroke-width="2" stroke-linecap="round"/>
    <path d="M200 290 L256 310" stroke="#60a5fa" stroke-width="3" stroke-linecap="round"/>
    <path d="M312 290 L256 310" stroke="#60a5fa" stroke-width="3" stroke-linecap="round"/>
    
    <!-- Additional neural connections -->
    <path d="M180 208 L200 272" stroke="#60a5fa" stroke-width="2" stroke-linecap="round" opacity="0.7"/>
    <path d="M332 208 L312 272" stroke="#60a5fa" stroke-width="2" stroke-linecap="round" opacity="0.7"/>
  </g>
  
  <!-- Problem submission elements -->
  <g fill="#fbbf24">
    <!-- Document/Form icon -->
    <rect x="220" y="340" width="72" height="80" rx="4" fill="#fbbf24" opacity="0.9"/>
    <rect x="230" y="350" width="52" height="2" fill="#1a1a1a"/>
    <rect x="230" y="360" width="40" height="2" fill="#1a1a1a"/>
    <rect x="230" y="370" width="45" height="2" fill="#1a1a1a"/>
    <rect x="230" y="380" width="35" height="2" fill="#1a1a1a"/>
    <rect x="230" y="390" width="50" height="2" fill="#1a1a1a"/>
    
    <!-- Submit arrow -->
    <path d="M300 380 L320 380 L310 370 L320 380 L310 390" stroke="#1a1a1a" stroke-width="3" stroke-linecap="round" stroke-linejoin="round"/>
  </g>
  
  <!-- TCS and DUK collaboration elements -->
  <g fill="#10b981">
    <!-- Collaboration dots -->
    <circle cx="150" cy="150" r="6" fill="#10b981"/>
    <circle cx="362" cy="150" r="6" fill="#10b981"/>
    <circle cx="150" cy="362" r="6" fill="#10b981"/>
    <circle cx="362" cy="362" r="6" fill="#10b981"/>
    
    <!-- Connection lines for collaboration -->
    <path d="M150 156 L200 200" stroke="#10b981" stroke-width="2" stroke-linecap="round" opacity="0.6"/>
    <path d="M362 156 L312 200" stroke="#10b981" stroke-width="2" stroke-linecap="round" opacity="0.6"/>
    <path d="M150 356 L200 312" stroke="#10b981" stroke-width="2" stroke-linecap="round" opacity="0.6"/>
    <path d="M362 356 L312 312" stroke="#10b981" stroke-width="2" stroke-linecap="round" opacity="0.6"/>
  </g>
  
  <!-- Innovation sparkles -->
  <g fill="#f59e0b">
    <path d="M120 120 L125 125 L120 130 L115 125 Z" fill="#f59e0b"/>
    <path d="M392 120 L397 125 L392 130 L387 125 Z" fill="#f59e0b"/>
    <path d="M120 392 L125 397 L120 402 L115 397 Z" fill="#f59e0b"/>
    <path d="M392 392 L397 397 L392 402 L387 397 Z" fill="#f59e0b"/>
  </g>
</svg> 